<svg xmlns="http://www.w3.org/2000/svg" width="400" height="400" viewBox="0 0 400 400">
  <defs>
    <style>
      .icon { fill: none; stroke: #9ca3af; stroke-width: 1.5; stroke-linecap: round; stroke-linejoin: round; opacity: 0.25; }
    </style>
  </defs>
  
  <!-- Football - top left -->
  <g transform="translate(30, 40) rotate(-15)">
    <circle class="icon" cx="12" cy="12" r="10"/>
    <path class="icon" d="M12 2v20M2 12h20M4 5l16 14M4 19l16-14"/>
  </g>
  
  <!-- Bitcoin - top center -->
  <g transform="translate(150, 25) rotate(10) scale(1.2)">
    <circle class="icon" cx="12" cy="12" r="10"/>
    <path class="icon" d="M9 8h4a2 2 0 1 1 0 4H9V8zm0 4h5a2 2 0 1 1 0 4H9v-4zM8 7v10M10 7v10"/>
  </g>
  
  <!-- Chart - top right -->
  <g transform="translate(300, 50) rotate(5)">
    <path class="icon" d="M3 20h18M6 16l4-4 4 4 5-6"/>
    <polyline class="icon" points="19 10 19 14 15 14"/>
  </g>
  
  <!-- Trophy - left middle -->
  <g transform="translate(60, 130) rotate(-8) scale(0.9)">
    <path class="icon" d="M6 9H4a2 2 0 0 1-2-2V5h4M18 9h2a2 2 0 0 0 2-2V5h-4"/>
    <path class="icon" d="M4 5h16v4a6 6 0 0 1-6 6h-4a6 6 0 0 1-6-6V5z"/>
    <path class="icon" d="M9 21h6M12 15v6"/>
  </g>
  
  <!-- Vote/Politics - center -->
  <g transform="translate(180, 110) rotate(12)">
    <rect class="icon" x="3" y="3" width="18" height="18" rx="2"/>
    <path class="icon" d="M9 12l2 2 4-4"/>
  </g>
  
  <!-- Star - right middle -->
  <g transform="translate(320, 140) rotate(-20) scale(0.8)">
    <polygon class="icon" points="12 2 15.09 8.26 22 9.27 17 14.14 18.18 21.02 12 17.77 5.82 21.02 7 14.14 2 9.27 8.91 8.26 12 2"/>
  </g>
  
  <!-- Basketball - lower left -->
  <g transform="translate(40, 250) rotate(25) scale(1.1)">
    <circle class="icon" cx="12" cy="12" r="10"/>
    <path class="icon" d="M12 2v20M2 12h20"/>
    <path class="icon" d="M4.93 4.93c4.08 4.08 4.08 10.06 0 14.14M19.07 4.93c-4.08 4.08-4.08 10.06 0 14.14"/>
  </g>
  
  <!-- Dollar - center bottom -->
  <g transform="translate(160, 220) rotate(-5)">
    <circle class="icon" cx="12" cy="12" r="10"/>
    <path class="icon" d="M12 6v12M9 9h4.5a1.5 1.5 0 0 1 0 3H9h5a1.5 1.5 0 0 1 0 3H9"/>
  </g>
  
  <!-- Film - right bottom -->
  <g transform="translate(290, 230) rotate(8) scale(0.95)">
    <rect class="icon" x="2" y="4" width="20" height="16" rx="2"/>
    <path class="icon" d="M6 4v16M18 4v16M2 10h4M18 10h4M2 14h4M18 14h4"/>
  </g>
  
  <!-- Government dome - bottom left -->
  <g transform="translate(80, 340) rotate(-12)">
    <path class="icon" d="M3 21h18M5 21V9l7-5 7 5v12"/>
    <path class="icon" d="M9 21v-6h6v6M12 4v2"/>
  </g>
  
  <!-- Microphone - bottom center -->
  <g transform="translate(200, 320) rotate(15) scale(0.85)">
    <path class="icon" d="M12 1a4 4 0 0 1 4 4v6a4 4 0 0 1-8 0V5a4 4 0 0 1 4-4z"/>
    <path class="icon" d="M19 10v2a7 7 0 0 1-14 0v-2M12 19v4M8 23h8"/>
  </g>
  
  <!-- Small trophy - bottom right -->
  <g transform="translate(340, 310) rotate(-25) scale(0.7)">
    <path class="icon" d="M6 9H4a2 2 0 0 1-2-2V5h4M18 9h2a2 2 0 0 0 2-2V5h-4"/>
    <path class="icon" d="M4 5h16v4a6 6 0 0 1-6 6h-4a6 6 0 0 1-6-6V5z"/>
    <path class="icon" d="M9 21h6M12 15v6"/>
  </g>
  
  <!-- Small chart - scattered -->
  <g transform="translate(250, 60) rotate(-10) scale(0.7)">
    <path class="icon" d="M3 20h18M6 16l4-4 4 4 5-6"/>
  </g>
  
  <!-- Small star - scattered -->
  <g transform="translate(120, 180) rotate(30) scale(0.6)">
    <polygon class="icon" points="12 2 15.09 8.26 22 9.27 17 14.14 18.18 21.02 12 17.77 5.82 21.02 7 14.14 2 9.27 8.91 8.26 12 2"/>
  </g>
  
  <!-- Small Bitcoin - scattered -->
  <g transform="translate(350, 180) rotate(-8) scale(0.75)">
    <circle class="icon" cx="12" cy="12" r="10"/>
    <path class="icon" d="M9 8h4a2 2 0 1 1 0 4H9V8zm0 4h5a2 2 0 1 1 0 4H9v-4z"/>
  </g>
  
  <!-- Small vote - scattered -->
  <g transform="translate(100, 290) rotate(18) scale(0.65)">
    <rect class="icon" x="3" y="3" width="18" height="18" rx="2"/>
    <path class="icon" d="M9 12l2 2 4-4"/>
  </g>
</svg>
